<svg xmlns="http://www.w3.org/2000/svg" viewBox="0 0 1200 800" style="font-family: 'Courier New', monospace; font-size: 14px;">
  <defs>
    <style>
      .title { font-size: 18px; font-weight: bold; fill: #cccccc; }
      .format-title { font-size: 16px; font-weight: bold; fill: #cccccc; }
      .line-number { fill: #858585; }
      .border { fill: none; stroke: #3e3e3e; stroke-width: 2; }
      .bg { fill: #1e1e1e; }
    </style>
  </defs>

  <rect x="0" y="0" width="1200" height="800" class="bg"/>

  <text x="600" y="30" text-anchor="middle" class="title">Format Comparison: LiNo, YAML, JSON, XML</text>

  <rect x="20" y="50" width="560" height="360" class="border"/>
  <text x="300" y="75" text-anchor="middle" class="format-title">LiNo</text>

  <text class="line-number">
    <tspan x="40" y="95">1</tspan>
  </text>
  <text xml:space="preserve">
    <tspan x="70" y="95" fill="#569cd6">empInfo</tspan>
  </text>

  <text class="line-number">
    <tspan x="40" y="115">2</tspan>
  </text>
  <text xml:space="preserve">
    <tspan x="70" y="115" fill="#d4d4d4">  </tspan><tspan x="86.8" y="115" fill="#569cd6">employees</tspan>
  </text>

  <text class="line-number">
    <tspan x="40" y="135">3</tspan>
  </text>
  <text xml:space="preserve">
    <tspan x="70" y="135" fill="#d4d4d4">    </tspan><tspan x="103.6" y="135" fill="#b5cea8">1</tspan>
  </text>

  <text class="line-number">
    <tspan x="40" y="155">4</tspan>
  </text>
  <text xml:space="preserve">
    <tspan x="70" y="155" fill="#d4d4d4">      </tspan><tspan x="120.4" y="155" fill="#569cd6">name</tspan><tspan x="154.0" y="155" fill="#d4d4d4"> </tspan><tspan x="162.4" y="155" fill="#d4d4d4">(</tspan><tspan x="170.8" y="155" fill="#ce9178">James Kirk</tspan><tspan x="254.8" y="155" fill="#d4d4d4">)</tspan>
  </text>

  <text class="line-number">
    <tspan x="40" y="175">5</tspan>
  </text>
  <text xml:space="preserve">
    <tspan x="70" y="175" fill="#d4d4d4">      </tspan><tspan x="120.4" y="175" fill="#569cd6">age</tspan><tspan x="145.60000000000002" y="175" fill="#d4d4d4"> </tspan><tspan x="154.00000000000003" y="175" fill="#b5cea8">40</tspan>
  </text>

  <text class="line-number">
    <tspan x="40" y="195">6</tspan>
  </text>
  <text xml:space="preserve">
    <tspan x="70" y="195" fill="#d4d4d4">    </tspan><tspan x="103.6" y="195" fill="#b5cea8">2</tspan>
  </text>

  <text class="line-number">
    <tspan x="40" y="215">7</tspan>
  </text>
  <text xml:space="preserve">
    <tspan x="70" y="215" fill="#d4d4d4">      </tspan><tspan x="120.4" y="215" fill="#569cd6">name</tspan><tspan x="154.0" y="215" fill="#d4d4d4"> </tspan><tspan x="162.4" y="215" fill="#d4d4d4">(</tspan><tspan x="170.8" y="215" fill="#ce9178">Jean-Luc Picard</tspan><tspan x="296.8" y="215" fill="#d4d4d4">)</tspan>
  </text>

  <text class="line-number">
    <tspan x="40" y="235">8</tspan>
  </text>
  <text xml:space="preserve">
    <tspan x="70" y="235" fill="#d4d4d4">      </tspan><tspan x="120.4" y="235" fill="#569cd6">age</tspan><tspan x="145.60000000000002" y="235" fill="#d4d4d4"> </tspan><tspan x="154.00000000000003" y="235" fill="#b5cea8">45</tspan>
  </text>

  <text class="line-number">
    <tspan x="40" y="255">9</tspan>
  </text>
  <text xml:space="preserve">
    <tspan x="70" y="255" fill="#d4d4d4">    </tspan><tspan x="103.6" y="255" fill="#b5cea8">3</tspan>
  </text>

  <text class="line-number">
    <tspan x="40" y="275">10</tspan>
  </text>
  <text xml:space="preserve">
    <tspan x="70" y="275" fill="#d4d4d4">      </tspan><tspan x="120.4" y="275" fill="#569cd6">name</tspan><tspan x="154.0" y="275" fill="#d4d4d4"> </tspan><tspan x="162.4" y="275" fill="#d4d4d4">(</tspan><tspan x="170.8" y="275" fill="#ce9178">Wesley Crusher</tspan><tspan x="288.40000000000003" y="275" fill="#d4d4d4">)</tspan>
  </text>

  <text class="line-number">
    <tspan x="40" y="295">11</tspan>
  </text>
  <text xml:space="preserve">
    <tspan x="70" y="295" fill="#d4d4d4">      </tspan><tspan x="120.4" y="295" fill="#569cd6">age</tspan><tspan x="145.60000000000002" y="295" fill="#d4d4d4"> </tspan><tspan x="154.00000000000003" y="295" fill="#b5cea8">27</tspan>
  </text>

  <rect x="620" y="50" width="560" height="360" class="border"/>
  <text x="900" y="75" text-anchor="middle" class="format-title">YAML</text>

  <text class="line-number">
    <tspan x="640" y="95">1</tspan>
  </text>
  <text xml:space="preserve">
    <tspan x="670" y="95" fill="#569cd6">empInfo</tspan><tspan x="728.8" y="95" fill="#d4d4d4">:</tspan>
  </text>

  <text class="line-number">
    <tspan x="640" y="115">2</tspan>
  </text>
  <text xml:space="preserve">
    <tspan x="670" y="115" fill="#d4d4d4">  </tspan><tspan x="686.8" y="115" fill="#569cd6">employees</tspan><tspan x="762.4" y="115" fill="#d4d4d4">:</tspan>
  </text>

  <text class="line-number">
    <tspan x="640" y="135">3</tspan>
  </text>
  <text xml:space="preserve">
    <tspan x="670" y="135" fill="#d4d4d4">    </tspan><tspan x="703.6" y="135" fill="#d4d4d4">- </tspan><tspan x="720.4" y="135" fill="#569cd6">id</tspan><tspan x="737.1999999999999" y="135" fill="#d4d4d4">:</tspan><tspan x="745.5999999999999" y="135" fill="#d4d4d4"> </tspan><tspan x="753.9999999999999" y="135" fill="#b5cea8">1</tspan>
  </text>

  <text class="line-number">
    <tspan x="640" y="155">4</tspan>
  </text>
  <text xml:space="preserve">
    <tspan x="670" y="155" fill="#d4d4d4">      </tspan><tspan x="720.4" y="155" fill="#569cd6">name</tspan><tspan x="754.0" y="155" fill="#d4d4d4">:</tspan><tspan x="762.4" y="155" fill="#d4d4d4"> </tspan><tspan x="770.8" y="155" fill="#ce9178">James Kirk</tspan>
  </text>

  <text class="line-number">
    <tspan x="640" y="175">5</tspan>
  </text>
  <text xml:space="preserve">
    <tspan x="670" y="175" fill="#d4d4d4">      </tspan><tspan x="720.4" y="175" fill="#569cd6">age</tspan><tspan x="745.6" y="175" fill="#d4d4d4">:</tspan><tspan x="754.0" y="175" fill="#d4d4d4"> </tspan><tspan x="762.4" y="175" fill="#b5cea8">40</tspan>
  </text>

  <text class="line-number">
    <tspan x="640" y="195">6</tspan>
  </text>
  <text xml:space="preserve">
    <tspan x="670" y="195" fill="#d4d4d4">    </tspan><tspan x="703.6" y="195" fill="#d4d4d4">- </tspan><tspan x="720.4" y="195" fill="#569cd6">id</tspan><tspan x="737.1999999999999" y="195" fill="#d4d4d4">:</tspan><tspan x="745.5999999999999" y="195" fill="#d4d4d4"> </tspan><tspan x="753.9999999999999" y="195" fill="#b5cea8">2</tspan>
  </text>

  <text class="line-number">
    <tspan x="640" y="215">7</tspan>
  </text>
  <text xml:space="preserve">
    <tspan x="670" y="215" fill="#d4d4d4">      </tspan><tspan x="720.4" y="215" fill="#569cd6">name</tspan><tspan x="754.0" y="215" fill="#d4d4d4">:</tspan><tspan x="762.4" y="215" fill="#d4d4d4"> </tspan><tspan x="770.8" y="215" fill="#ce9178">Jean-Luc Picard</tspan>
  </text>

  <text class="line-number">
    <tspan x="640" y="235">8</tspan>
  </text>
  <text xml:space="preserve">
    <tspan x="670" y="235" fill="#d4d4d4">      </tspan><tspan x="720.4" y="235" fill="#569cd6">age</tspan><tspan x="745.6" y="235" fill="#d4d4d4">:</tspan><tspan x="754.0" y="235" fill="#d4d4d4"> </tspan><tspan x="762.4" y="235" fill="#b5cea8">45</tspan>
  </text>

  <text class="line-number">
    <tspan x="640" y="255">9</tspan>
  </text>
  <text xml:space="preserve">
    <tspan x="670" y="255" fill="#d4d4d4">    </tspan><tspan x="703.6" y="255" fill="#d4d4d4">- </tspan><tspan x="720.4" y="255" fill="#569cd6">id</tspan><tspan x="737.1999999999999" y="255" fill="#d4d4d4">:</tspan><tspan x="745.5999999999999" y="255" fill="#d4d4d4"> </tspan><tspan x="753.9999999999999" y="255" fill="#b5cea8">3</tspan>
  </text>

  <text class="line-number">
    <tspan x="640" y="275">10</tspan>
  </text>
  <text xml:space="preserve">
    <tspan x="670" y="275" fill="#d4d4d4">      </tspan><tspan x="720.4" y="275" fill="#569cd6">name</tspan><tspan x="754.0" y="275" fill="#d4d4d4">:</tspan><tspan x="762.4" y="275" fill="#d4d4d4"> </tspan><tspan x="770.8" y="275" fill="#ce9178">Wesley Crusher</tspan>
  </text>

  <text class="line-number">
    <tspan x="640" y="295">11</tspan>
  </text>
  <text xml:space="preserve">
    <tspan x="670" y="295" fill="#d4d4d4">      </tspan><tspan x="720.4" y="295" fill="#569cd6">age</tspan><tspan x="745.6" y="295" fill="#d4d4d4">:</tspan><tspan x="754.0" y="295" fill="#d4d4d4"> </tspan><tspan x="762.4" y="295" fill="#b5cea8">27</tspan>
  </text>

  <rect x="20" y="430" width="560" height="360" class="border"/>
  <text x="300" y="455" text-anchor="middle" class="format-title">JSON</text>

  <text class="line-number">
    <tspan x="40" y="475">1</tspan>
  </text>
  <text xml:space="preserve">
    <tspan x="70" y="475" fill="#d4d4d4">{</tspan>
  </text>

  <text class="line-number">
    <tspan x="40" y="495">2</tspan>
  </text>
  <text xml:space="preserve">
    <tspan x="70" y="495" fill="#d4d4d4">  </tspan><tspan x="86.8" y="495" fill="#569cd6">&quot;empInfo&quot;</tspan><tspan x="162.4" y="495" fill="#d4d4d4">:</tspan><tspan x="170.8" y="495" fill="#d4d4d4"> </tspan><tspan x="179.20000000000002" y="495" fill="#d4d4d4">{</tspan>
  </text>

  <text class="line-number">
    <tspan x="40" y="515">3</tspan>
  </text>
  <text xml:space="preserve">
    <tspan x="70" y="515" fill="#d4d4d4">    </tspan><tspan x="103.6" y="515" fill="#569cd6">&quot;employees&quot;</tspan><tspan x="196.0" y="515" fill="#d4d4d4">:</tspan><tspan x="204.4" y="515" fill="#d4d4d4"> </tspan><tspan x="212.8" y="515" fill="#d4d4d4">[</tspan>
  </text>

  <text class="line-number">
    <tspan x="40" y="535">4</tspan>
  </text>
  <text xml:space="preserve">
    <tspan x="70" y="535" fill="#d4d4d4">      </tspan><tspan x="120.4" y="535" fill="#d4d4d4">{</tspan>
  </text>

  <text class="line-number">
    <tspan x="40" y="555">5</tspan>
  </text>
  <text xml:space="preserve">
    <tspan x="70" y="555" fill="#d4d4d4">        </tspan><tspan x="137.2" y="555" fill="#569cd6">&quot;name&quot;</tspan><tspan x="187.6" y="555" fill="#d4d4d4">:</tspan><tspan x="196.0" y="555" fill="#d4d4d4"> </tspan><tspan x="204.4" y="555" fill="#569cd6">&quot;James Kirk&quot;</tspan><tspan x="305.20000000000005" y="555" fill="#d4d4d4">,</tspan>
  </text>

  <text class="line-number">
    <tspan x="40" y="575">6</tspan>
  </text>
  <text xml:space="preserve">
    <tspan x="70" y="575" fill="#d4d4d4">        </tspan><tspan x="137.2" y="575" fill="#569cd6">&quot;age&quot;</tspan><tspan x="179.2" y="575" fill="#d4d4d4">:</tspan><tspan x="187.6" y="575" fill="#d4d4d4"> </tspan><tspan x="196.0" y="575" fill="#b5cea8">40</tspan>
  </text>

  <text class="line-number">
    <tspan x="40" y="595">7</tspan>
  </text>
  <text xml:space="preserve">
    <tspan x="70" y="595" fill="#d4d4d4">      </tspan><tspan x="120.4" y="595" fill="#d4d4d4">}</tspan><tspan x="128.8" y="595" fill="#d4d4d4">,</tspan>
  </text>

  <text class="line-number">
    <tspan x="40" y="615">8</tspan>
  </text>
  <text xml:space="preserve">
    <tspan x="70" y="615" fill="#d4d4d4">      </tspan><tspan x="120.4" y="615" fill="#d4d4d4">{</tspan>
  </text>

  <text class="line-number">
    <tspan x="40" y="635">9</tspan>
  </text>
  <text xml:space="preserve">
    <tspan x="70" y="635" fill="#d4d4d4">        </tspan><tspan x="137.2" y="635" fill="#569cd6">&quot;name&quot;</tspan><tspan x="187.6" y="635" fill="#d4d4d4">:</tspan><tspan x="196.0" y="635" fill="#d4d4d4"> </tspan><tspan x="204.4" y="635" fill="#569cd6">&quot;Jean-Luc Picard&quot;</tspan><tspan x="347.20000000000005" y="635" fill="#d4d4d4">,</tspan>
  </text>

  <text class="line-number">
    <tspan x="40" y="655">10</tspan>
  </text>
  <text xml:space="preserve">
    <tspan x="70" y="655" fill="#d4d4d4">        </tspan><tspan x="137.2" y="655" fill="#569cd6">&quot;age&quot;</tspan><tspan x="179.2" y="655" fill="#d4d4d4">:</tspan><tspan x="187.6" y="655" fill="#d4d4d4"> </tspan><tspan x="196.0" y="655" fill="#b5cea8">45</tspan>
  </text>

  <text class="line-number">
    <tspan x="40" y="675">11</tspan>
  </text>
  <text xml:space="preserve">
    <tspan x="70" y="675" fill="#d4d4d4">      </tspan><tspan x="120.4" y="675" fill="#d4d4d4">}</tspan><tspan x="128.8" y="675" fill="#d4d4d4">,</tspan>
  </text>

  <text class="line-number">
    <tspan x="40" y="695">12</tspan>
  </text>
  <text xml:space="preserve">
    <tspan x="70" y="695" fill="#d4d4d4">      </tspan><tspan x="120.4" y="695" fill="#d4d4d4">{</tspan>
  </text>

  <text class="line-number">
    <tspan x="40" y="715">13</tspan>
  </text>
  <text xml:space="preserve">
    <tspan x="70" y="715" fill="#d4d4d4">        </tspan><tspan x="137.2" y="715" fill="#569cd6">&quot;name&quot;</tspan><tspan x="187.6" y="715" fill="#d4d4d4">:</tspan><tspan x="196.0" y="715" fill="#d4d4d4"> </tspan><tspan x="204.4" y="715" fill="#569cd6">&quot;Wesley Crusher&quot;</tspan><tspan x="338.8" y="715" fill="#d4d4d4">,</tspan>
  </text>

  <text class="line-number">
    <tspan x="40" y="735">14</tspan>
  </text>
  <text xml:space="preserve">
    <tspan x="70" y="735" fill="#d4d4d4">        </tspan><tspan x="137.2" y="735" fill="#569cd6">&quot;age&quot;</tspan><tspan x="179.2" y="735" fill="#d4d4d4">:</tspan><tspan x="187.6" y="735" fill="#d4d4d4"> </tspan><tspan x="196.0" y="735" fill="#b5cea8">27</tspan>
  </text>

  <text class="line-number">
    <tspan x="40" y="755">15</tspan>
  </text>
  <text xml:space="preserve">
    <tspan x="70" y="755" fill="#d4d4d4">      </tspan><tspan x="120.4" y="755" fill="#d4d4d4">}</tspan>
  </text>

  <text class="line-number">
    <tspan x="40" y="775">16</tspan>
  </text>
  <text xml:space="preserve">
    <tspan x="70" y="775" fill="#d4d4d4">    </tspan><tspan x="103.6" y="775" fill="#d4d4d4">]</tspan>
  </text>

  <text class="line-number">
    <tspan x="40" y="795">17</tspan>
  </text>
  <text xml:space="preserve">
    <tspan x="70" y="795" fill="#d4d4d4">  </tspan><tspan x="86.8" y="795" fill="#d4d4d4">}</tspan>
  </text>

  <text class="line-number">
    <tspan x="40" y="815">18</tspan>
  </text>
  <text xml:space="preserve">
    <tspan x="70" y="815" fill="#d4d4d4">}</tspan>
  </text>

  <rect x="620" y="430" width="560" height="360" class="border"/>
  <text x="900" y="455" text-anchor="middle" class="format-title">XML</text>

  <text class="line-number">
    <tspan x="640" y="475">1</tspan>
  </text>
  <text xml:space="preserve">
    <tspan x="670" y="475" fill="#4ec9b0">&lt;</tspan><tspan x="678.4" y="475" fill="#4ec9b0">empInfo</tspan><tspan x="737.1999999999999" y="475" fill="#4ec9b0">&gt;</tspan>
  </text>

  <text class="line-number">
    <tspan x="640" y="495">2</tspan>
  </text>
  <text xml:space="preserve">
    <tspan x="670" y="495" fill="#d4d4d4">  </tspan><tspan x="686.8" y="495" fill="#4ec9b0">&lt;</tspan><tspan x="695.1999999999999" y="495" fill="#4ec9b0">employees</tspan><tspan x="770.8" y="495" fill="#4ec9b0">&gt;</tspan>
  </text>

  <text class="line-number">
    <tspan x="640" y="515">3</tspan>
  </text>
  <text xml:space="preserve">
    <tspan x="670" y="515" fill="#d4d4d4">    </tspan><tspan x="703.6" y="515" fill="#4ec9b0">&lt;</tspan><tspan x="712.0" y="515" fill="#4ec9b0">employee</tspan><tspan x="779.2" y="515" fill="#4ec9b0">&gt;</tspan>
  </text>

  <text class="line-number">
    <tspan x="640" y="535">4</tspan>
  </text>
  <text xml:space="preserve">
    <tspan x="670" y="535" fill="#d4d4d4">      </tspan><tspan x="720.4" y="535" fill="#4ec9b0">&lt;</tspan><tspan x="728.8" y="535" fill="#4ec9b0">name</tspan><tspan x="762.4" y="535" fill="#4ec9b0">&gt;</tspan><tspan x="770.8" y="535" fill="#ce9178">James Kirk</tspan><tspan x="854.8" y="535" fill="#4ec9b0">&lt;</tspan><tspan x="863.1999999999999" y="535" fill="#4ec9b0">/</tspan><tspan x="871.5999999999999" y="535" fill="#4ec9b0">name</tspan><tspan x="905.1999999999999" y="535" fill="#4ec9b0">&gt;</tspan>
  </text>

  <text class="line-number">
    <tspan x="640" y="555">5</tspan>
  </text>
  <text xml:space="preserve">
    <tspan x="670" y="555" fill="#d4d4d4">      </tspan><tspan x="720.4" y="555" fill="#4ec9b0">&lt;</tspan><tspan x="728.8" y="555" fill="#4ec9b0">age</tspan><tspan x="754.0" y="555" fill="#4ec9b0">&gt;</tspan><tspan x="762.4" y="555" fill="#b5cea8">40</tspan><tspan x="779.1999999999999" y="555" fill="#4ec9b0">&lt;</tspan><tspan x="787.5999999999999" y="555" fill="#4ec9b0">/</tspan><tspan x="795.9999999999999" y="555" fill="#4ec9b0">age</tspan><tspan x="821.1999999999999" y="555" fill="#4ec9b0">&gt;</tspan>
  </text>

  <text class="line-number">
    <tspan x="640" y="575">6</tspan>
  </text>
  <text xml:space="preserve">
    <tspan x="670" y="575" fill="#d4d4d4">    </tspan><tspan x="703.6" y="575" fill="#4ec9b0">&lt;</tspan><tspan x="712.0" y="575" fill="#4ec9b0">/</tspan><tspan x="720.4" y="575" fill="#4ec9b0">employee</tspan><tspan x="787.6" y="575" fill="#4ec9b0">&gt;</tspan>
  </text>

  <text class="line-number">
    <tspan x="640" y="595">7</tspan>
  </text>
  <text xml:space="preserve">
    <tspan x="670" y="595" fill="#d4d4d4">    </tspan><tspan x="703.6" y="595" fill="#4ec9b0">&lt;</tspan><tspan x="712.0" y="595" fill="#4ec9b0">employee</tspan><tspan x="779.2" y="595" fill="#4ec9b0">&gt;</tspan>
  </text>

  <text class="line-number">
    <tspan x="640" y="615">8</tspan>
  </text>
  <text xml:space="preserve">
    <tspan x="670" y="615" fill="#d4d4d4">      </tspan><tspan x="720.4" y="615" fill="#4ec9b0">&lt;</tspan><tspan x="728.8" y="615" fill="#4ec9b0">name</tspan><tspan x="762.4" y="615" fill="#4ec9b0">&gt;</tspan><tspan x="770.8" y="615" fill="#ce9178">Jean-Luc Picard</tspan><tspan x="896.8" y="615" fill="#4ec9b0">&lt;</tspan><tspan x="905.1999999999999" y="615" fill="#4ec9b0">/</tspan><tspan x="913.5999999999999" y="615" fill="#4ec9b0">name</tspan><tspan x="947.1999999999999" y="615" fill="#4ec9b0">&gt;</tspan>
  </text>

  <text class="line-number">
    <tspan x="640" y="635">9</tspan>
  </text>
  <text xml:space="preserve">
    <tspan x="670" y="635" fill="#d4d4d4">      </tspan><tspan x="720.4" y="635" fill="#4ec9b0">&lt;</tspan><tspan x="728.8" y="635" fill="#4ec9b0">age</tspan><tspan x="754.0" y="635" fill="#4ec9b0">&gt;</tspan><tspan x="762.4" y="635" fill="#b5cea8">45</tspan><tspan x="779.1999999999999" y="635" fill="#4ec9b0">&lt;</tspan><tspan x="787.5999999999999" y="635" fill="#4ec9b0">/</tspan><tspan x="795.9999999999999" y="635" fill="#4ec9b0">age</tspan><tspan x="821.1999999999999" y="635" fill="#4ec9b0">&gt;</tspan>
  </text>

  <text class="line-number">
    <tspan x="640" y="655">10</tspan>
  </text>
  <text xml:space="preserve">
    <tspan x="670" y="655" fill="#d4d4d4">    </tspan><tspan x="703.6" y="655" fill="#4ec9b0">&lt;</tspan><tspan x="712.0" y="655" fill="#4ec9b0">/</tspan><tspan x="720.4" y="655" fill="#4ec9b0">employee</tspan><tspan x="787.6" y="655" fill="#4ec9b0">&gt;</tspan>
  </text>

  <text class="line-number">
    <tspan x="640" y="675">11</tspan>
  </text>
  <text xml:space="preserve">
    <tspan x="670" y="675" fill="#d4d4d4">    </tspan><tspan x="703.6" y="675" fill="#4ec9b0">&lt;</tspan><tspan x="712.0" y="675" fill="#4ec9b0">employee</tspan><tspan x="779.2" y="675" fill="#4ec9b0">&gt;</tspan>
  </text>

  <text class="line-number">
    <tspan x="640" y="695">12</tspan>
  </text>
  <text xml:space="preserve">
    <tspan x="670" y="695" fill="#d4d4d4">      </tspan><tspan x="720.4" y="695" fill="#4ec9b0">&lt;</tspan><tspan x="728.8" y="695" fill="#4ec9b0">name</tspan><tspan x="762.4" y="695" fill="#4ec9b0">&gt;</tspan><tspan x="770.8" y="695" fill="#ce9178">Wesley Crusher</tspan><tspan x="888.4" y="695" fill="#4ec9b0">&lt;</tspan><tspan x="896.8" y="695" fill="#4ec9b0">/</tspan><tspan x="905.1999999999999" y="695" fill="#4ec9b0">name</tspan><tspan x="938.8" y="695" fill="#4ec9b0">&gt;</tspan>
  </text>

  <text class="line-number">
    <tspan x="640" y="715">13</tspan>
  </text>
  <text xml:space="preserve">
    <tspan x="670" y="715" fill="#d4d4d4">      </tspan><tspan x="720.4" y="715" fill="#4ec9b0">&lt;</tspan><tspan x="728.8" y="715" fill="#4ec9b0">age</tspan><tspan x="754.0" y="715" fill="#4ec9b0">&gt;</tspan><tspan x="762.4" y="715" fill="#b5cea8">27</tspan><tspan x="779.1999999999999" y="715" fill="#4ec9b0">&lt;</tspan><tspan x="787.5999999999999" y="715" fill="#4ec9b0">/</tspan><tspan x="795.9999999999999" y="715" fill="#4ec9b0">age</tspan><tspan x="821.1999999999999" y="715" fill="#4ec9b0">&gt;</tspan>
  </text>

  <text class="line-number">
    <tspan x="640" y="735">14</tspan>
  </text>
  <text xml:space="preserve">
    <tspan x="670" y="735" fill="#d4d4d4">    </tspan><tspan x="703.6" y="735" fill="#4ec9b0">&lt;</tspan><tspan x="712.0" y="735" fill="#4ec9b0">/</tspan><tspan x="720.4" y="735" fill="#4ec9b0">employee</tspan><tspan x="787.6" y="735" fill="#4ec9b0">&gt;</tspan>
  </text>

  <text class="line-number">
    <tspan x="640" y="755">15</tspan>
  </text>
  <text xml:space="preserve">
    <tspan x="670" y="755" fill="#d4d4d4">  </tspan><tspan x="686.8" y="755" fill="#4ec9b0">&lt;</tspan><tspan x="695.1999999999999" y="755" fill="#4ec9b0">/</tspan><tspan x="703.5999999999999" y="755" fill="#4ec9b0">employees</tspan><tspan x="779.1999999999999" y="755" fill="#4ec9b0">&gt;</tspan>
  </text>

  <text class="line-number">
    <tspan x="640" y="775">16</tspan>
  </text>
  <text xml:space="preserve">
    <tspan x="670" y="775" fill="#4ec9b0">&lt;</tspan><tspan x="678.4" y="775" fill="#4ec9b0">/</tspan><tspan x="686.8" y="775" fill="#4ec9b0">empInfo</tspan><tspan x="745.5999999999999" y="775" fill="#4ec9b0">&gt;</tspan>
  </text>

</svg>
