<svg xmlns="http://www.w3.org/2000/svg" viewBox="0 0 1200 900" style="font-family: 'Courier New', monospace; font-size: 14px;">
  <defs>
    <style>
      .title { font-size: 18px; font-weight: bold; fill: #000000; }
      .format-title { font-size: 16px; font-weight: bold; fill: #000000; }
      .line-number { fill: #888888; }
      .border { fill: none; stroke: #cccccc; stroke-width: 2; }
      .border-line { stroke: #cccccc; stroke-width: 2; }
      .bg { fill: #ffffff; }
    </style>
  </defs>

  <rect x="0" y="0" width="1200" height="900" class="bg"/>

  <text x="600" y="30" text-anchor="middle" class="title">Format Comparison: LiNo, YAML, JSON, XML</text>

  <rect x="20" y="50" width="1160" height="840" class="border"/>
  <line x1="600" y1="50" x2="600" y2="890" class="border-line"/>
  <line x1="20" y1="470" x2="1180" y2="470" class="border-line"/>

  <text x="310" y="75" text-anchor="middle" class="format-title">LiNo</text>

  <text class="line-number">
    <tspan x="40" y="95">1</tspan>
  </text>
  <text xml:space="preserve">
    <tspan x="70" y="95" fill="#0000ff">empInfo</tspan>
  </text>

  <text class="line-number">
    <tspan x="40" y="115">2</tspan>
  </text>
  <text xml:space="preserve">
    <tspan x="70" y="115" fill="#000000">  </tspan><tspan x="86.8" y="115" fill="#0000ff">employees</tspan><tspan x="162.4" y="115" fill="#000000">:</tspan>
  </text>

  <text class="line-number">
    <tspan x="40" y="135">3</tspan>
  </text>
  <text xml:space="preserve">
    <tspan x="70" y="135" fill="#000000">    </tspan><tspan x="103.6" y="135" fill="#000000">(</tspan>
  </text>

  <text class="line-number">
    <tspan x="40" y="155">4</tspan>
  </text>
  <text xml:space="preserve">
    <tspan x="70" y="155" fill="#000000">      </tspan><tspan x="120.4" y="155" fill="#0000ff">name</tspan><tspan x="154.0" y="155" fill="#000000"> </tspan><tspan x="162.4" y="155" fill="#000000">(</tspan><tspan x="170.8" y="155" fill="#008000">James Kirk</tspan><tspan x="254.8" y="155" fill="#000000">)</tspan>
  </text>

  <text class="line-number">
    <tspan x="40" y="175">5</tspan>
  </text>
  <text xml:space="preserve">
    <tspan x="70" y="175" fill="#000000">      </tspan><tspan x="120.4" y="175" fill="#0000ff">age</tspan><tspan x="145.60000000000002" y="175" fill="#000000"> </tspan><tspan x="154.00000000000003" y="175" fill="#ff0000">40</tspan>
  </text>

  <text class="line-number">
    <tspan x="40" y="195">6</tspan>
  </text>
  <text xml:space="preserve">
    <tspan x="70" y="195" fill="#000000">    </tspan><tspan x="103.6" y="195" fill="#000000">)</tspan>
  </text>

  <text class="line-number">
    <tspan x="40" y="215">7</tspan>
  </text>
  <text xml:space="preserve">
    <tspan x="70" y="215" fill="#000000">    </tspan><tspan x="103.6" y="215" fill="#000000">(</tspan>
  </text>

  <text class="line-number">
    <tspan x="40" y="235">8</tspan>
  </text>
  <text xml:space="preserve">
    <tspan x="70" y="235" fill="#000000">      </tspan><tspan x="120.4" y="235" fill="#0000ff">name</tspan><tspan x="154.0" y="235" fill="#000000"> </tspan><tspan x="162.4" y="235" fill="#000000">(</tspan><tspan x="170.8" y="235" fill="#008000">Jean-Luc Picard</tspan><tspan x="296.8" y="235" fill="#000000">)</tspan>
  </text>

  <text class="line-number">
    <tspan x="40" y="255">9</tspan>
  </text>
  <text xml:space="preserve">
    <tspan x="70" y="255" fill="#000000">      </tspan><tspan x="120.4" y="255" fill="#0000ff">age</tspan><tspan x="145.60000000000002" y="255" fill="#000000"> </tspan><tspan x="154.00000000000003" y="255" fill="#ff0000">45</tspan>
  </text>

  <text class="line-number">
    <tspan x="40" y="275">10</tspan>
  </text>
  <text xml:space="preserve">
    <tspan x="70" y="275" fill="#000000">    </tspan><tspan x="103.6" y="275" fill="#000000">)</tspan>
  </text>

  <text class="line-number">
    <tspan x="40" y="295">11</tspan>
  </text>
  <text xml:space="preserve">
    <tspan x="70" y="295" fill="#000000">    </tspan><tspan x="103.6" y="295" fill="#000000">(</tspan>
  </text>

  <text class="line-number">
    <tspan x="40" y="315">12</tspan>
  </text>
  <text xml:space="preserve">
    <tspan x="70" y="315" fill="#000000">      </tspan><tspan x="120.4" y="315" fill="#0000ff">name</tspan><tspan x="154.0" y="315" fill="#000000"> </tspan><tspan x="162.4" y="315" fill="#000000">(</tspan><tspan x="170.8" y="315" fill="#008000">Wesley Crusher</tspan><tspan x="288.40000000000003" y="315" fill="#000000">)</tspan>
  </text>

  <text class="line-number">
    <tspan x="40" y="335">13</tspan>
  </text>
  <text xml:space="preserve">
    <tspan x="70" y="335" fill="#000000">      </tspan><tspan x="120.4" y="335" fill="#0000ff">age</tspan><tspan x="145.60000000000002" y="335" fill="#000000"> </tspan><tspan x="154.00000000000003" y="335" fill="#ff0000">27</tspan>
  </text>

  <text class="line-number">
    <tspan x="40" y="355">14</tspan>
  </text>
  <text xml:space="preserve">
    <tspan x="70" y="355" fill="#000000">    </tspan><tspan x="103.6" y="355" fill="#000000">)</tspan>
  </text>

  <text x="890" y="75" text-anchor="middle" class="format-title">YAML</text>

  <text class="line-number">
    <tspan x="620" y="95">1</tspan>
  </text>
  <text xml:space="preserve">
    <tspan x="650" y="95" fill="#0000ff">empInfo</tspan><tspan x="708.8" y="95" fill="#000000">:</tspan>
  </text>

  <text class="line-number">
    <tspan x="620" y="115">2</tspan>
  </text>
  <text xml:space="preserve">
    <tspan x="650" y="115" fill="#000000">  </tspan><tspan x="666.8" y="115" fill="#0000ff">employees</tspan><tspan x="742.4" y="115" fill="#000000">:</tspan>
  </text>

  <text class="line-number">
    <tspan x="620" y="135">3</tspan>
  </text>
  <text xml:space="preserve">
    <tspan x="650" y="135" fill="#000000">    </tspan><tspan x="683.6" y="135" fill="#000000">- </tspan><tspan x="700.4" y="135" fill="#0000ff">name</tspan><tspan x="734.0" y="135" fill="#000000">:</tspan><tspan x="742.4" y="135" fill="#000000"> </tspan><tspan x="750.8" y="135" fill="#008000">James Kirk</tspan>
  </text>

  <text class="line-number">
    <tspan x="620" y="155">4</tspan>
  </text>
  <text xml:space="preserve">
    <tspan x="650" y="155" fill="#000000">      </tspan><tspan x="700.4" y="155" fill="#0000ff">age</tspan><tspan x="725.6" y="155" fill="#000000">:</tspan><tspan x="734.0" y="155" fill="#000000"> </tspan><tspan x="742.4" y="155" fill="#ff0000">40</tspan>
  </text>

  <text class="line-number">
    <tspan x="620" y="175">5</tspan>
  </text>
  <text xml:space="preserve">
    <tspan x="650" y="175" fill="#000000">    </tspan><tspan x="683.6" y="175" fill="#000000">- </tspan><tspan x="700.4" y="175" fill="#0000ff">name</tspan><tspan x="734.0" y="175" fill="#000000">:</tspan><tspan x="742.4" y="175" fill="#000000"> </tspan><tspan x="750.8" y="175" fill="#008000">Jean-Luc Picard</tspan>
  </text>

  <text class="line-number">
    <tspan x="620" y="195">6</tspan>
  </text>
  <text xml:space="preserve">
    <tspan x="650" y="195" fill="#000000">      </tspan><tspan x="700.4" y="195" fill="#0000ff">age</tspan><tspan x="725.6" y="195" fill="#000000">:</tspan><tspan x="734.0" y="195" fill="#000000"> </tspan><tspan x="742.4" y="195" fill="#ff0000">45</tspan>
  </text>

  <text class="line-number">
    <tspan x="620" y="215">7</tspan>
  </text>
  <text xml:space="preserve">
    <tspan x="650" y="215" fill="#000000">    </tspan><tspan x="683.6" y="215" fill="#000000">- </tspan><tspan x="700.4" y="215" fill="#0000ff">name</tspan><tspan x="734.0" y="215" fill="#000000">:</tspan><tspan x="742.4" y="215" fill="#000000"> </tspan><tspan x="750.8" y="215" fill="#008000">Wesley Crusher</tspan>
  </text>

  <text class="line-number">
    <tspan x="620" y="235">8</tspan>
  </text>
  <text xml:space="preserve">
    <tspan x="650" y="235" fill="#000000">      </tspan><tspan x="700.4" y="235" fill="#0000ff">age</tspan><tspan x="725.6" y="235" fill="#000000">:</tspan><tspan x="734.0" y="235" fill="#000000"> </tspan><tspan x="742.4" y="235" fill="#ff0000">27</tspan>
  </text>

  <text x="310" y="495" text-anchor="middle" class="format-title">JSON</text>

  <text class="line-number">
    <tspan x="40" y="515">1</tspan>
  </text>
  <text xml:space="preserve">
    <tspan x="70" y="515" fill="#000000">{</tspan>
  </text>

  <text class="line-number">
    <tspan x="40" y="535">2</tspan>
  </text>
  <text xml:space="preserve">
    <tspan x="70" y="535" fill="#000000">  </tspan><tspan x="86.8" y="535" fill="#0000ff">&quot;empInfo&quot;</tspan><tspan x="162.4" y="535" fill="#000000">:</tspan><tspan x="170.8" y="535" fill="#000000"> </tspan><tspan x="179.20000000000002" y="535" fill="#000000">{</tspan>
  </text>

  <text class="line-number">
    <tspan x="40" y="555">3</tspan>
  </text>
  <text xml:space="preserve">
    <tspan x="70" y="555" fill="#000000">    </tspan><tspan x="103.6" y="555" fill="#0000ff">&quot;employees&quot;</tspan><tspan x="196.0" y="555" fill="#000000">:</tspan><tspan x="204.4" y="555" fill="#000000"> </tspan><tspan x="212.8" y="555" fill="#000000">[</tspan>
  </text>

  <text class="line-number">
    <tspan x="40" y="575">4</tspan>
  </text>
  <text xml:space="preserve">
    <tspan x="70" y="575" fill="#000000">      </tspan><tspan x="120.4" y="575" fill="#000000">{</tspan>
  </text>

  <text class="line-number">
    <tspan x="40" y="595">5</tspan>
  </text>
  <text xml:space="preserve">
    <tspan x="70" y="595" fill="#000000">        </tspan><tspan x="137.2" y="595" fill="#0000ff">&quot;name&quot;</tspan><tspan x="187.6" y="595" fill="#000000">:</tspan><tspan x="196.0" y="595" fill="#000000"> </tspan><tspan x="204.4" y="595" fill="#0000ff">&quot;James Kirk&quot;</tspan><tspan x="305.20000000000005" y="595" fill="#000000">,</tspan>
  </text>

  <text class="line-number">
    <tspan x="40" y="615">6</tspan>
  </text>
  <text xml:space="preserve">
    <tspan x="70" y="615" fill="#000000">        </tspan><tspan x="137.2" y="615" fill="#0000ff">&quot;age&quot;</tspan><tspan x="179.2" y="615" fill="#000000">:</tspan><tspan x="187.6" y="615" fill="#000000"> </tspan><tspan x="196.0" y="615" fill="#ff0000">40</tspan>
  </text>

  <text class="line-number">
    <tspan x="40" y="635">7</tspan>
  </text>
  <text xml:space="preserve">
    <tspan x="70" y="635" fill="#000000">      </tspan><tspan x="120.4" y="635" fill="#000000">}</tspan><tspan x="128.8" y="635" fill="#000000">,</tspan>
  </text>

  <text class="line-number">
    <tspan x="40" y="655">8</tspan>
  </text>
  <text xml:space="preserve">
    <tspan x="70" y="655" fill="#000000">      </tspan><tspan x="120.4" y="655" fill="#000000">{</tspan>
  </text>

  <text class="line-number">
    <tspan x="40" y="675">9</tspan>
  </text>
  <text xml:space="preserve">
    <tspan x="70" y="675" fill="#000000">        </tspan><tspan x="137.2" y="675" fill="#0000ff">&quot;name&quot;</tspan><tspan x="187.6" y="675" fill="#000000">:</tspan><tspan x="196.0" y="675" fill="#000000"> </tspan><tspan x="204.4" y="675" fill="#0000ff">&quot;Jean-Luc Picard&quot;</tspan><tspan x="347.20000000000005" y="675" fill="#000000">,</tspan>
  </text>

  <text class="line-number">
    <tspan x="40" y="695">10</tspan>
  </text>
  <text xml:space="preserve">
    <tspan x="70" y="695" fill="#000000">        </tspan><tspan x="137.2" y="695" fill="#0000ff">&quot;age&quot;</tspan><tspan x="179.2" y="695" fill="#000000">:</tspan><tspan x="187.6" y="695" fill="#000000"> </tspan><tspan x="196.0" y="695" fill="#ff0000">45</tspan>
  </text>

  <text class="line-number">
    <tspan x="40" y="715">11</tspan>
  </text>
  <text xml:space="preserve">
    <tspan x="70" y="715" fill="#000000">      </tspan><tspan x="120.4" y="715" fill="#000000">}</tspan><tspan x="128.8" y="715" fill="#000000">,</tspan>
  </text>

  <text class="line-number">
    <tspan x="40" y="735">12</tspan>
  </text>
  <text xml:space="preserve">
    <tspan x="70" y="735" fill="#000000">      </tspan><tspan x="120.4" y="735" fill="#000000">{</tspan>
  </text>

  <text class="line-number">
    <tspan x="40" y="755">13</tspan>
  </text>
  <text xml:space="preserve">
    <tspan x="70" y="755" fill="#000000">        </tspan><tspan x="137.2" y="755" fill="#0000ff">&quot;name&quot;</tspan><tspan x="187.6" y="755" fill="#000000">:</tspan><tspan x="196.0" y="755" fill="#000000"> </tspan><tspan x="204.4" y="755" fill="#0000ff">&quot;Wesley Crusher&quot;</tspan><tspan x="338.8" y="755" fill="#000000">,</tspan>
  </text>

  <text class="line-number">
    <tspan x="40" y="775">14</tspan>
  </text>
  <text xml:space="preserve">
    <tspan x="70" y="775" fill="#000000">        </tspan><tspan x="137.2" y="775" fill="#0000ff">&quot;age&quot;</tspan><tspan x="179.2" y="775" fill="#000000">:</tspan><tspan x="187.6" y="775" fill="#000000"> </tspan><tspan x="196.0" y="775" fill="#ff0000">27</tspan>
  </text>

  <text class="line-number">
    <tspan x="40" y="795">15</tspan>
  </text>
  <text xml:space="preserve">
    <tspan x="70" y="795" fill="#000000">      </tspan><tspan x="120.4" y="795" fill="#000000">}</tspan>
  </text>

  <text class="line-number">
    <tspan x="40" y="815">16</tspan>
  </text>
  <text xml:space="preserve">
    <tspan x="70" y="815" fill="#000000">    </tspan><tspan x="103.6" y="815" fill="#000000">]</tspan>
  </text>

  <text class="line-number">
    <tspan x="40" y="835">17</tspan>
  </text>
  <text xml:space="preserve">
    <tspan x="70" y="835" fill="#000000">  </tspan><tspan x="86.8" y="835" fill="#000000">}</tspan>
  </text>

  <text class="line-number">
    <tspan x="40" y="855">18</tspan>
  </text>
  <text xml:space="preserve">
    <tspan x="70" y="855" fill="#000000">}</tspan>
  </text>

  <text x="890" y="495" text-anchor="middle" class="format-title">XML</text>

  <text class="line-number">
    <tspan x="620" y="515">1</tspan>
  </text>
  <text xml:space="preserve">
    <tspan x="650" y="515" fill="#800080">&lt;</tspan><tspan x="658.4" y="515" fill="#800080">empInfo</tspan><tspan x="717.1999999999999" y="515" fill="#800080">&gt;</tspan>
  </text>

  <text class="line-number">
    <tspan x="620" y="535">2</tspan>
  </text>
  <text xml:space="preserve">
    <tspan x="650" y="535" fill="#000000">  </tspan><tspan x="666.8" y="535" fill="#800080">&lt;</tspan><tspan x="675.1999999999999" y="535" fill="#800080">employees</tspan><tspan x="750.8" y="535" fill="#800080">&gt;</tspan>
  </text>

  <text class="line-number">
    <tspan x="620" y="555">3</tspan>
  </text>
  <text xml:space="preserve">
    <tspan x="650" y="555" fill="#000000">    </tspan><tspan x="683.6" y="555" fill="#800080">&lt;</tspan><tspan x="692.0" y="555" fill="#800080">employee</tspan><tspan x="759.2" y="555" fill="#800080">&gt;</tspan>
  </text>

  <text class="line-number">
    <tspan x="620" y="575">4</tspan>
  </text>
  <text xml:space="preserve">
    <tspan x="650" y="575" fill="#000000">      </tspan><tspan x="700.4" y="575" fill="#800080">&lt;</tspan><tspan x="708.8" y="575" fill="#800080">name</tspan><tspan x="742.4" y="575" fill="#800080">&gt;</tspan><tspan x="750.8" y="575" fill="#008000">James Kirk</tspan><tspan x="834.8" y="575" fill="#800080">&lt;</tspan><tspan x="843.1999999999999" y="575" fill="#800080">/</tspan><tspan x="851.5999999999999" y="575" fill="#800080">name</tspan><tspan x="885.1999999999999" y="575" fill="#800080">&gt;</tspan>
  </text>

  <text class="line-number">
    <tspan x="620" y="595">5</tspan>
  </text>
  <text xml:space="preserve">
    <tspan x="650" y="595" fill="#000000">      </tspan><tspan x="700.4" y="595" fill="#800080">&lt;</tspan><tspan x="708.8" y="595" fill="#800080">age</tspan><tspan x="734.0" y="595" fill="#800080">&gt;</tspan><tspan x="742.4" y="595" fill="#ff0000">40</tspan><tspan x="759.1999999999999" y="595" fill="#800080">&lt;</tspan><tspan x="767.5999999999999" y="595" fill="#800080">/</tspan><tspan x="775.9999999999999" y="595" fill="#800080">age</tspan><tspan x="801.1999999999999" y="595" fill="#800080">&gt;</tspan>
  </text>

  <text class="line-number">
    <tspan x="620" y="615">6</tspan>
  </text>
  <text xml:space="preserve">
    <tspan x="650" y="615" fill="#000000">    </tspan><tspan x="683.6" y="615" fill="#800080">&lt;</tspan><tspan x="692.0" y="615" fill="#800080">/</tspan><tspan x="700.4" y="615" fill="#800080">employee</tspan><tspan x="767.6" y="615" fill="#800080">&gt;</tspan>
  </text>

  <text class="line-number">
    <tspan x="620" y="635">7</tspan>
  </text>
  <text xml:space="preserve">
    <tspan x="650" y="635" fill="#000000">    </tspan><tspan x="683.6" y="635" fill="#800080">&lt;</tspan><tspan x="692.0" y="635" fill="#800080">employee</tspan><tspan x="759.2" y="635" fill="#800080">&gt;</tspan>
  </text>

  <text class="line-number">
    <tspan x="620" y="655">8</tspan>
  </text>
  <text xml:space="preserve">
    <tspan x="650" y="655" fill="#000000">      </tspan><tspan x="700.4" y="655" fill="#800080">&lt;</tspan><tspan x="708.8" y="655" fill="#800080">name</tspan><tspan x="742.4" y="655" fill="#800080">&gt;</tspan><tspan x="750.8" y="655" fill="#008000">Jean-Luc Picard</tspan><tspan x="876.8" y="655" fill="#800080">&lt;</tspan><tspan x="885.1999999999999" y="655" fill="#800080">/</tspan><tspan x="893.5999999999999" y="655" fill="#800080">name</tspan><tspan x="927.1999999999999" y="655" fill="#800080">&gt;</tspan>
  </text>

  <text class="line-number">
    <tspan x="620" y="675">9</tspan>
  </text>
  <text xml:space="preserve">
    <tspan x="650" y="675" fill="#000000">      </tspan><tspan x="700.4" y="675" fill="#800080">&lt;</tspan><tspan x="708.8" y="675" fill="#800080">age</tspan><tspan x="734.0" y="675" fill="#800080">&gt;</tspan><tspan x="742.4" y="675" fill="#ff0000">45</tspan><tspan x="759.1999999999999" y="675" fill="#800080">&lt;</tspan><tspan x="767.5999999999999" y="675" fill="#800080">/</tspan><tspan x="775.9999999999999" y="675" fill="#800080">age</tspan><tspan x="801.1999999999999" y="675" fill="#800080">&gt;</tspan>
  </text>

  <text class="line-number">
    <tspan x="620" y="695">10</tspan>
  </text>
  <text xml:space="preserve">
    <tspan x="650" y="695" fill="#000000">    </tspan><tspan x="683.6" y="695" fill="#800080">&lt;</tspan><tspan x="692.0" y="695" fill="#800080">/</tspan><tspan x="700.4" y="695" fill="#800080">employee</tspan><tspan x="767.6" y="695" fill="#800080">&gt;</tspan>
  </text>

  <text class="line-number">
    <tspan x="620" y="715">11</tspan>
  </text>
  <text xml:space="preserve">
    <tspan x="650" y="715" fill="#000000">    </tspan><tspan x="683.6" y="715" fill="#800080">&lt;</tspan><tspan x="692.0" y="715" fill="#800080">employee</tspan><tspan x="759.2" y="715" fill="#800080">&gt;</tspan>
  </text>

  <text class="line-number">
    <tspan x="620" y="735">12</tspan>
  </text>
  <text xml:space="preserve">
    <tspan x="650" y="735" fill="#000000">      </tspan><tspan x="700.4" y="735" fill="#800080">&lt;</tspan><tspan x="708.8" y="735" fill="#800080">name</tspan><tspan x="742.4" y="735" fill="#800080">&gt;</tspan><tspan x="750.8" y="735" fill="#008000">Wesley Crusher</tspan><tspan x="868.4" y="735" fill="#800080">&lt;</tspan><tspan x="876.8" y="735" fill="#800080">/</tspan><tspan x="885.1999999999999" y="735" fill="#800080">name</tspan><tspan x="918.8" y="735" fill="#800080">&gt;</tspan>
  </text>

  <text class="line-number">
    <tspan x="620" y="755">13</tspan>
  </text>
  <text xml:space="preserve">
    <tspan x="650" y="755" fill="#000000">      </tspan><tspan x="700.4" y="755" fill="#800080">&lt;</tspan><tspan x="708.8" y="755" fill="#800080">age</tspan><tspan x="734.0" y="755" fill="#800080">&gt;</tspan><tspan x="742.4" y="755" fill="#ff0000">27</tspan><tspan x="759.1999999999999" y="755" fill="#800080">&lt;</tspan><tspan x="767.5999999999999" y="755" fill="#800080">/</tspan><tspan x="775.9999999999999" y="755" fill="#800080">age</tspan><tspan x="801.1999999999999" y="755" fill="#800080">&gt;</tspan>
  </text>

  <text class="line-number">
    <tspan x="620" y="775">14</tspan>
  </text>
  <text xml:space="preserve">
    <tspan x="650" y="775" fill="#000000">    </tspan><tspan x="683.6" y="775" fill="#800080">&lt;</tspan><tspan x="692.0" y="775" fill="#800080">/</tspan><tspan x="700.4" y="775" fill="#800080">employee</tspan><tspan x="767.6" y="775" fill="#800080">&gt;</tspan>
  </text>

  <text class="line-number">
    <tspan x="620" y="795">15</tspan>
  </text>
  <text xml:space="preserve">
    <tspan x="650" y="795" fill="#000000">  </tspan><tspan x="666.8" y="795" fill="#800080">&lt;</tspan><tspan x="675.1999999999999" y="795" fill="#800080">/</tspan><tspan x="683.5999999999999" y="795" fill="#800080">employees</tspan><tspan x="759.1999999999999" y="795" fill="#800080">&gt;</tspan>
  </text>

  <text class="line-number">
    <tspan x="620" y="815">16</tspan>
  </text>
  <text xml:space="preserve">
    <tspan x="650" y="815" fill="#800080">&lt;</tspan><tspan x="658.4" y="815" fill="#800080">/</tspan><tspan x="666.8" y="815" fill="#800080">empInfo</tspan><tspan x="725.5999999999999" y="815" fill="#800080">&gt;</tspan>
  </text>

</svg>
